# xmcd
#
# Track frame offsets:
#	182
#	22077
#	40957
#	60775
#	82797
#	103955
#	124905
#	147785
#
# Disc length: 2258 seconds
#
# Revision: 3
# Processed by: cddbd v1.5.2PL0 Copyright (c) Steve Scherf et al.
# Submitted via: EasyCDDAExtractor 15.3.0.1
#
DISCID=6308d008
DTITLE=Rey Ruiz
DYEAR=1992
DGENRE=Latin
TTITLE0=No Me Acostumbro
TTITLE1=Perdoname
TTITLE2=Si Me Das Un Beso
TTITLE3=Quedate Aqui
TTITLE4=Amiga
TTITLE5=Enamorado
TTITLE6=Sera Lo Que Sera
TTITLE7=Todo Por Estar Contigo
EXTD=YEAR: 1992 ID3G: 86
EXTT0=
EXTT1=
EXTT2=
EXTT3=
EXTT4=
EXTT5=
EXTT6=
EXTT7=
PLAYORDER=
